<svg width="141" height="47" viewBox="0 0 141 47" fill="none" xmlns="http://www.w3.org/2000/svg">
<path d="M63.8909 37.32C62.2643 37.32 60.7176 37.28 59.2509 37.2C57.8109 37.12 56.6643 37.0267 55.8109 36.92V9.08C56.7443 8.97333 57.9043 8.88 59.2909 8.8C60.6776 8.72 62.2643 8.68 64.0509 8.68C67.4643 8.68 70.0909 9.33333 71.9309 10.64C73.7709 11.92 74.6909 13.6667 74.6909 15.88C74.6909 17.3467 74.2909 18.6 73.4909 19.64C72.7176 20.6533 71.5843 21.4933 70.0909 22.16C71.9043 22.8 73.2776 23.6933 74.2109 24.84C75.1443 25.96 75.6109 27.3467 75.6109 29C75.6109 31.5333 74.6109 33.56 72.6109 35.08C70.6109 36.5733 67.7043 37.32 63.8909 37.32ZM59.6109 21.08H64.0109C66.1176 21.08 67.7843 20.64 69.0109 19.76C70.2643 18.88 70.8909 17.7467 70.8909 16.36C70.8909 14.8667 70.2776 13.7333 69.0509 12.96C67.8243 12.16 66.1443 11.76 64.0109 11.76C63.1309 11.76 62.3309 11.7867 61.6109 11.84C60.8909 11.8667 60.2243 11.9067 59.6109 11.96V21.08ZM64.1709 34.16C66.5443 34.16 68.3976 33.7333 69.7309 32.88C71.0643 32.0267 71.7309 30.7867 71.7309 29.16C71.7309 27.56 71.0776 26.3067 69.7709 25.4C68.4643 24.4933 66.5976 24.04 64.1709 24.04H59.6109V33.92C61.0243 34.08 62.5443 34.16 64.1709 34.16ZM88.5663 37.48C86.8329 37.48 85.2596 37.04 83.8463 36.16C82.4329 35.28 81.2996 34.04 80.4463 32.44C79.6196 30.8133 79.2063 28.9067 79.2063 26.72C79.2063 24.64 79.6196 22.7733 80.4463 21.12C81.2996 19.4667 82.4596 18.16 83.9263 17.2C85.4196 16.2133 87.1263 15.72 89.0463 15.72C90.2463 15.72 91.3263 15.9333 92.2863 16.36C93.2729 16.76 94.1263 17.2667 94.8463 17.88V16.2H98.1263V31.96C98.1263 32.9733 98.3663 33.64 98.8463 33.96C99.3529 34.2533 99.8996 34.4 100.486 34.4L99.7263 37.2C97.1663 37.2 95.6196 36.16 95.0863 34.08C94.4729 34.9333 93.6329 35.72 92.5663 36.44C91.5263 37.1333 90.1929 37.48 88.5663 37.48ZM89.3663 34.28C90.3796 34.28 91.3396 34.04 92.2463 33.56C93.1529 33.0533 93.9129 32.4267 94.5263 31.68V20.52C93.8063 20.0133 93.0063 19.6133 92.1263 19.32C91.2729 19 90.3663 18.84 89.4063 18.84C88.1263 18.84 86.9929 19.1733 86.0063 19.84C85.0463 20.48 84.2863 21.3867 83.7263 22.56C83.1663 23.7067 82.8863 25.0533 82.8863 26.6C82.8863 28.0933 83.1663 29.4267 83.7263 30.6C84.2863 31.7467 85.0596 32.6533 86.0463 33.32C87.0329 33.96 88.1396 34.28 89.3663 34.28ZM113.303 37.48C111.33 37.48 109.596 37.0267 108.103 36.12C106.636 35.1867 105.503 33.9067 104.703 32.28C103.903 30.6267 103.503 28.7333 103.503 26.6C103.503 24.6 103.903 22.7733 104.703 21.12C105.53 19.4667 106.703 18.16 108.223 17.2C109.743 16.2133 111.53 15.72 113.583 15.72C114.756 15.72 115.783 15.8267 116.663 16.04C117.57 16.2533 118.436 16.56 119.263 16.96L118.183 20C117.436 19.6267 116.716 19.36 116.023 19.2C115.356 19.0133 114.61 18.92 113.783 18.92C111.916 18.92 110.343 19.6 109.063 20.96C107.81 22.2933 107.183 24.1467 107.183 26.52C107.183 27.96 107.45 29.2667 107.983 30.44C108.516 31.6133 109.25 32.5467 110.183 33.24C111.143 33.9333 112.263 34.28 113.543 34.28C114.556 34.28 115.423 34.1733 116.143 33.96C116.863 33.72 117.636 33.3867 118.463 32.96L119.583 36C118.756 36.4533 117.823 36.8133 116.783 37.08C115.77 37.3467 114.61 37.48 113.303 37.48ZM138.13 37.4L127.37 26.32V37H123.77V7.4H127.37V24.32L136.77 15.8L138.85 18.08L130.81 25.2L140.61 35L138.13 37.4Z" fill="black"/>
<path d="M35.5 43C35.5 37 29 24.6 3 23" stroke="black" stroke-width="5" stroke-linecap="round"/>
<path d="M35.5 3C35.5 9 29 21.4 3 23" stroke="black" stroke-width="5" stroke-linecap="round"/>
</svg>
